<svg width="125" height="36" viewBox="0 0 125 36" fill="none" xmlns="http://www.w3.org/2000/svg">
<g clip-path="url(#clip0_567_2087)">
<path fill-rule="evenodd" clip-rule="evenodd" d="M62.4821 29.3309C56.6302 33.6829 48.1475 35.9999 40.8424 35.9999C30.6023 35.9999 21.3846 32.1859 14.4083 25.8344C13.8603 25.3354 14.3483 24.6544 15.0095 25.0394C22.5374 29.4554 31.8474 32.1144 41.4614 32.1144C47.9462 32.1144 55.0782 30.7564 61.6369 27.9514C62.6269 27.5274 63.4542 28.6074 62.489 29.3309H62.4821Z" fill="#F8981D"/>
<path fill-rule="evenodd" clip-rule="evenodd" d="M64.9151 26.5296C64.1657 25.5635 59.9684 26.0695 58.0801 26.2981C57.5072 26.3655 57.419 25.8631 57.9353 25.4996C61.2839 23.129 66.7751 23.8136 67.4115 24.6051C68.0548 25.4071 67.2419 30.9531 64.1057 33.6016C63.621 34.0081 63.1652 33.7906 63.377 33.2521C64.0843 31.4736 65.6645 27.4921 64.9151 26.5261V26.5296Z" fill="#F8981D"/>
<path fill-rule="evenodd" clip-rule="evenodd" d="M58.2145 8.74701V6.44103C58.2145 6.0915 58.4799 5.85654 58.7943 5.85654H69.0413C69.3701 5.85654 69.6315 6.09557 69.6315 6.43754V8.41202C69.6315 8.74352 69.3523 9.17506 68.8607 9.86249L63.5535 17.501C65.5231 17.4545 67.6093 17.7505 69.3984 18.7665C69.8017 18.9945 69.9113 19.333 69.943 19.6645V22.124C69.943 22.4625 69.5755 22.8545 69.1901 22.6515C66.036 20.987 61.8498 20.805 58.3634 22.673C58.0062 22.8655 57.6347 22.477 57.6347 22.1385V19.8006C57.6347 19.426 57.6416 18.788 58.0166 18.2181L64.1656 9.3251H58.8122C58.4834 9.3251 58.222 9.09015 58.222 8.7441L58.2151 8.74759L58.2145 8.74701ZM20.8406 23.14H17.7217C17.4246 23.122 17.1881 22.894 17.1633 22.609V6.48C17.1633 6.15548 17.4356 5.899 17.7679 5.899H20.671C20.9751 5.91354 21.2191 6.14501 21.237 6.44103V8.54753H21.297C22.0539 6.51257 23.4784 5.56052 25.3984 5.56052C27.3185 5.56052 28.5698 6.51199 29.4433 8.54753C30.2003 6.51257 31.9149 5.56052 33.7501 5.56052C35.0586 5.56052 36.4871 6.10255 37.3566 7.32504C38.3466 8.68304 38.1418 10.6505 38.1418 12.3831V22.559C38.1418 22.8801 37.8695 23.14 37.5372 23.14H34.4223C34.1113 23.1185 33.8638 22.869 33.8638 22.5625V14.0115C33.8638 13.3345 33.9203 11.634 33.7755 10.9925C33.5425 9.90552 32.8455 9.60252 31.9438 9.60252C31.1868 9.60252 30.4022 10.112 30.0803 10.925C29.7583 11.741 29.7901 13.0955 29.7901 14.0115V22.559C29.7901 22.8801 29.5212 23.14 29.1889 23.14H26.074C25.7631 23.1185 25.5155 22.869 25.5155 22.5625V14.0115C25.5155 12.2115 25.8017 9.56646 23.592 9.56646C21.3824 9.56646 21.4389 12.1469 21.4389 14.0115V22.559C21.4389 22.8801 21.1701 23.14 20.8378 23.14H20.8412H20.8406ZM78.454 5.56052C83.0787 5.56052 85.582 9.56704 85.582 14.6565C85.582 19.7459 82.8168 23.482 78.454 23.482C74.0912 23.482 71.4425 19.4755 71.4425 14.489C71.4425 9.50249 73.9458 5.56401 78.454 5.56401V5.56052ZM78.4823 8.85402C76.1838 8.85402 76.0389 12.0085 76.0389 13.9795C76.0389 15.9505 76.0107 20.1565 78.454 20.1565C80.8973 20.1565 80.9856 16.763 80.9856 14.6925C80.9856 13.3345 80.929 11.7055 80.5188 10.4156C80.1686 9.29661 79.4723 8.8546 78.4823 8.8546V8.85402ZM91.5827 23.14H88.4782C88.1673 23.1185 87.9198 22.869 87.9198 22.5625V6.42649C87.9411 6.13047 88.199 5.899 88.514 5.899H91.4062C91.6785 5.91354 91.9012 6.09848 91.9612 6.35147V8.81796H92.0212C92.8947 6.61144 94.1143 5.55994 96.268 5.55994C97.6648 5.55994 99.0333 6.0694 99.9062 7.45997C100.72 8.7505 100.72 10.921 100.72 12.4819V22.6294C100.684 22.9144 100.429 23.1389 100.122 23.1389H96.9961C96.7059 23.1208 96.4763 22.9074 96.4411 22.6294V13.8719C96.4411 12.1074 96.6459 9.52691 94.4928 9.52691C93.7359 9.52691 93.036 10.0364 92.6893 10.8174C92.2543 11.8015 92.1943 12.7849 92.1943 13.8719V22.555C92.1874 22.876 91.9185 23.136 91.5862 23.136L91.5827 23.1395V23.14ZM102.667 21.86C102.667 21.0475 103.353 20.3915 104.202 20.3915C105.051 20.3915 105.737 21.051 105.737 21.86C105.737 22.6689 105.051 23.3285 104.202 23.3285C103.353 23.3285 102.667 22.6689 102.667 21.86ZM50.0468 15.437C50.0468 16.6629 50.0751 17.6825 49.4636 18.7694C48.9686 19.6534 48.1799 20.199 47.3064 20.199C46.111 20.199 45.4112 19.2795 45.4112 17.9215C45.4112 15.2445 47.7945 14.76 50.0468 14.76V15.441V15.4375V15.437ZM53.19 23.097C52.9852 23.2825 52.6881 23.2965 52.4544 23.172C51.4182 22.306 51.2348 21.903 50.6688 21.0795C48.9576 22.8364 47.7449 23.3645 45.5277 23.3645C42.9038 23.3645 40.8603 21.732 40.8603 18.467C40.8603 15.915 42.2323 14.1825 44.184 13.3311C45.8744 12.5826 48.2364 12.447 50.0463 12.2441V11.8375C50.0463 11.089 50.1063 10.205 49.6678 9.56006C49.2893 8.98255 48.5612 8.7441 47.9174 8.7441C46.7295 8.7441 45.6719 9.35709 45.4106 10.6296C45.3575 10.9111 45.1527 11.1926 44.8694 11.2071L41.8497 10.8791C41.5953 10.8221 41.312 10.6151 41.383 10.2231C42.0759 6.52711 45.3892 5.41105 48.3524 5.41105C49.8692 5.41105 51.8527 5.81758 53.0481 6.97609C54.5648 8.40562 54.42 10.3086 54.42 12.3831V17.2771C54.42 18.7491 55.0281 19.3941 55.5975 20.1891C55.7954 20.4741 55.8416 20.8166 55.5872 21.0231C54.9508 21.561 53.8194 22.5521 53.1969 23.1115L53.19 23.1046V23.0976V23.097ZM9.18251 15.437C9.18251 16.6629 9.21078 17.6825 8.59922 18.7694C8.10421 19.6534 7.31554 20.199 6.44206 20.199C5.24665 20.199 4.54683 19.2795 4.54683 17.9215C4.54683 15.2445 6.93015 14.76 9.18251 14.76V15.441V15.4375V15.437ZM12.3262 23.097C12.1214 23.2825 11.8208 23.2965 11.5906 23.172C10.5545 22.306 10.371 21.903 9.80502 21.0795C8.09383 22.8364 6.88111 23.3645 4.66741 23.3645C2.04351 23.3645 0 21.732 0 18.467C0 15.915 1.37195 14.1825 3.32373 13.3311C5.01415 12.5826 7.37612 12.447 9.18597 12.2441V11.8375C9.18597 11.089 9.24251 10.205 8.8075 9.56006C8.42903 8.98255 7.70093 8.7441 7.05707 8.7441C5.86916 8.7441 4.81164 9.35709 4.55029 10.6296C4.49721 10.9111 4.2924 11.1926 4.00912 11.2071L0.989444 10.8791C0.735016 10.8221 0.451741 10.6151 0.522704 10.2231C1.2156 6.52711 4.52548 5.41105 7.49208 5.41105C9.00885 5.41105 10.9924 5.81758 12.1878 6.97609C13.7045 8.40562 13.5597 10.3086 13.5597 12.3831V17.2771C13.5597 18.7491 14.1678 19.3941 14.7372 20.1891C14.9351 20.4741 14.9813 20.8166 14.7269 21.0231C14.0905 21.561 12.9591 22.5521 12.3366 23.1115L12.3297 23.1046L12.3262 23.0976V23.097ZM113.746 5.92401H114.99C115.256 5.92401 115.524 6.15548 115.524 6.41603V8.8075C116.394 6.94003 117.801 5.58553 119.965 5.58553C121.651 5.58553 122.917 6.19502 123.844 7.51405C124.827 8.93603 125 10.9035 125 12.6646V22.6375C125 22.9016 124.731 23.1331 124.466 23.1331H123.016C122.751 23.1331 122.483 22.9016 122.483 22.6375V12.6646C122.483 11.6805 122.423 10.3941 121.991 9.51354C121.574 8.60452 120.63 7.88801 119.735 7.8915C118.805 7.8915 117.6 8.57952 116.854 9.65254C115.959 10.939 115.726 12.3616 115.726 13.9906V22.6556C115.726 22.9016 115.46 23.1365 115.192 23.1365H113.742C113.473 23.1365 113.205 22.8905 113.209 22.641V6.41952C113.209 6.15548 113.474 5.92401 113.742 5.92401H113.746ZM107.37 1.48653C107.37 0.666494 108.066 0 108.923 0C109.779 0 110.475 0.666494 110.475 1.48653C110.475 2.30656 109.779 2.97305 108.923 2.97305C108.066 2.97305 107.37 2.30656 107.37 1.48653ZM109.658 23.136H108.191C107.926 23.136 107.657 22.901 107.657 22.6439L107.664 6.49396C107.664 6.23399 107.933 5.99845 108.194 5.99845H109.655C109.92 5.99845 110.188 6.23341 110.188 6.49396V22.6474C110.188 22.9074 109.923 23.136 109.658 23.1395V23.136Z" fill="#231F20"/>
</g>
<defs>
<clipPath id="clip0_567_2087">
<rect width="125" height="36" fill="white"/>
</clipPath>
</defs>
</svg>
