<?xml version="1.0" encoding="UTF-8"?>
<svg id="Layer_1" data-name="Layer 1" xmlns="http://www.w3.org/2000/svg" viewBox="0 0 208 192">
  <defs>
    <style>
      .cls-1 {
        stroke-width: 0px;
      }
    </style>
  </defs>
  <polygon class="cls-1" points="31.26 136.35 37.88 102.16 12.75 77.04 46.72 72.66 61.96 41.07 75.72 67.07 72.19 68.94 62.13 49.93 49.38 76.34 21.34 79.96 42.21 100.84 36.83 128.65 58.07 116.75 60.02 120.24 31.26 136.35"/>
  <polygon class="cls-1" points="176.74 136.35 147.98 120.24 149.93 116.75 171.17 128.65 165.79 100.84 186.66 79.96 158.62 76.34 145.87 49.93 135.81 68.94 132.28 67.07 146.04 41.07 161.28 72.66 195.25 77.04 170.12 102.16 176.74 136.35"/>
  <polygon class="cls-1" points="104.55 41 121.55 77 160.55 83 132.05 110.51 139.55 150 103.55 131 68.55 151 75.55 111 47.55 83 86.55 77 104.55 41"/>
</svg>