<svg width="16" height="14" viewBox="0 0 16 14" fill="none" xmlns="http://www.w3.org/2000/svg">
<path id="Union" fill-rule="evenodd" clip-rule="evenodd" d="M9.58164 13.704L15.5568 7.91087C15.7666 7.77063 15.917 7.54748 15.9747 7.29135C15.9776 7.28121 15.9802 7.27033 15.9822 7.25875C15.9838 7.24973 15.9848 7.24148 15.9855 7.23427C15.9965 7.12529 15.9949 7.14575 15.9965 7.12529C15.9979 7.1107 16 7.08608 16 7.0593V7.04953C16 7.0367 15.9993 7.02593 15.9988 7.01859L15.9978 7.00798C15.9843 6.67253 15.8153 6.37019 15.5563 6.19614L9.58518 0.303511C9.1845 -0.101526 8.51841 -0.0908403 8.10979 0.273935C7.67368 0.663247 7.68394 1.32604 8.0769 1.72516L12.4502 6.0401H0.93624C0.389683 6.0401 0 6.52801 0 7.05305C0 7.57809 0.389683 8.066 0.93624 8.066H12.4222L8.08381 12.272L8.07877 12.2771C7.68166 12.6804 7.68211 13.3195 8.10435 13.7216L8.11175 13.7286L8.11959 13.7352C8.31865 13.901 8.572 14 8.83375 14C9.08982 14 9.3713 13.9043 9.58164 13.704Z" fill="white"/>
</svg>
