<svg width="170" height="25" viewBox="0 0 170 25" fill="none" xmlns="http://www.w3.org/2000/svg">
<g clip-path="url(#clip0_126_2)">
<path d="M5.06676 0C2.27253 0 0 2.27124 0 5.06388V5.69639H10.1323V24.6844H10.7651C13.5581 24.6844 15.8319 22.4131 15.8319 19.6205V5.69639H20.5816C23.3746 5.69639 25.6484 3.42516 25.6484 0.632512V0H5.06676Z" fill="#1470FB"/>
<path d="M60.9917 0C58.2644 0 56.0449 2.21821 56.0449 4.94395V24.6844H56.7978C59.5251 24.6844 61.7446 22.4662 61.7446 19.7404V0H60.9917Z" fill="#1470FB"/>
<path d="M113.872 0C111.144 0 108.925 2.21821 108.925 4.94394V25.0013H109.678C112.405 25.0013 114.624 22.7831 114.624 20.0573V0H113.872Z" fill="#1470FB"/>
<path d="M32.4951 0C29.7678 0 27.5483 2.21821 27.5483 4.94394V5.69639H48.2499C50.9772 5.69639 53.1967 3.47818 53.1967 0.752449V0H32.4951Z" fill="#1470FB"/>
<path d="M28.1812 8.54448H27.5483V18.2392L27.5572 18.291C28.6094 24.5479 34.6047 24.683 34.664 24.683H35.4637H36.0965H48.087C50.7334 24.683 52.8114 22.6239 52.8392 19.9852C52.8544 19.8047 52.7899 19.6216 52.6573 19.4891C52.536 19.3679 52.3718 19.3022 52.2063 19.3022C52.1937 19.3022 52.1823 19.3022 52.1697 19.3022H34.5516C33.4274 19.3022 33.2682 18.1938 33.2467 17.9274V14.2396H48.2487C50.976 14.2396 53.1954 12.0214 53.1954 9.29566V8.54321H28.1812V8.54448ZM52.2063 19.9373C52.2063 19.9953 52.2 20.0521 52.1975 20.1102C52.2 20.0521 52.2051 19.9953 52.2051 19.9373H52.2063Z" fill="#1470FB"/>
<path d="M99.423 0H99.4192H99.4154H86.1592C83.5153 0 81.4385 2.05156 81.4044 4.68261C81.3855 4.86819 81.4499 5.05757 81.5863 5.19392C81.7076 5.31512 81.8718 5.38077 82.0373 5.38077C82.0499 5.38077 82.0613 5.38077 82.0739 5.38077H99.4672C100.653 5.38077 100.69 6.86294 100.691 6.92607V7.2985L100.689 7.94743C100.687 8.24033 100.603 9.17836 99.5708 9.17836H81.0596V24.6856H81.8125C84.5397 24.6856 86.7592 22.4674 86.7592 19.7417V14.8748H99.5442C100.761 14.8748 101.874 14.4316 102.735 13.7019C104.176 12.7841 105.605 11.1491 106.065 8.22897H106.074V5.90471L106.022 5.91354C104.938 0.1313 99.4798 0 99.423 0Z" fill="#1470FB"/>
<path d="M142.133 19.6192C142.121 19.6192 142.109 19.6192 142.097 19.6192H124.479C123.354 19.6192 123.195 18.5108 123.174 18.2444V0.632512C123.174 0.2828 122.891 0 122.541 0H122.421C119.694 0 117.474 2.21821 117.474 4.94394V18.5032C117.474 18.5385 117.477 18.5739 117.483 18.608C118.535 24.8649 124.53 25 124.59 25H125.389H138.013C140.659 25 142.737 22.9409 142.765 20.3022C142.78 20.1217 142.716 19.9386 142.583 19.8061C142.462 19.6849 142.298 19.6192 142.132 19.6192H142.133ZM142.125 20.426C142.127 20.3679 142.132 20.3111 142.132 20.253C142.132 20.3111 142.126 20.3679 142.123 20.426H142.125Z" fill="#1470FB"/>
<path d="M169.816 19.8061C169.695 19.6849 169.53 19.6192 169.365 19.6192C169.352 19.6192 169.341 19.6192 169.328 19.6192H151.71C150.586 19.6192 150.427 18.5108 150.405 18.2444V0.632512C150.405 0.2828 150.122 0 149.772 0H149.652C146.925 0 144.706 2.21821 144.706 4.94394V18.5032C144.706 18.5385 144.708 18.5739 144.714 18.608C145.767 24.8649 151.762 25 151.821 25H152.621H165.244C167.891 25 169.969 22.9409 169.996 20.3022C170.012 20.1217 169.947 19.9386 169.815 19.8061H169.816ZM169.357 20.426C169.36 20.3679 169.365 20.3111 169.365 20.253C169.365 20.3111 169.359 20.3679 169.356 20.426H169.357Z" fill="#1470FB"/>
<path d="M78.4166 2.02884L77.9694 1.58065C77.0346 0.646405 75.7929 0.132568 74.4715 0.132568C73.1502 0.132568 71.9085 0.646405 70.9737 1.58065L64.7814 7.76942L64.5957 7.95501V16.9945L64.7814 17.1801L70.9737 23.3689C71.9085 24.3031 73.1502 24.8169 74.4715 24.8169C75.7929 24.8169 77.0346 24.3031 77.9694 23.3689L78.4166 22.9219L77.9694 22.475L67.9647 12.476L77.9694 2.47703L78.4166 2.0301V2.02884Z" fill="#1470FB"/>
</g>
<defs>
<clipPath id="clip0_126_2">
<rect width="170" height="25" fill="white"/>
</clipPath>
</defs>
</svg>
