<svg width="170" height="25" viewBox="0 0 170 25" fill="none" xmlns="http://www.w3.org/2000/svg">
<path d="M32.4951 0C29.7678 0 27.5483 2.21821 27.5483 4.94394V5.69639H48.2499C50.9772 5.69639 53.1967 3.47818 53.1967 0.752449V0H32.4951Z" fill="white"/>
<path d="M5.06676 0C2.27253 0 0 2.27124 0 5.06388V5.69639H10.1323V24.6844H10.7651C13.5581 24.6844 15.8319 22.4131 15.8319 19.6205V5.69639H20.5816C23.3746 5.69639 25.6484 3.42516 25.6484 0.632512V0H5.06676Z" fill="white"/>
<path d="M60.9919 0C58.2646 0 56.0452 2.21821 56.0452 4.94395V24.6844H56.798C59.5253 24.6844 61.7448 22.4662 61.7448 19.7404V0H60.9919Z" fill="white"/>
<path d="M113.872 0C111.144 0 108.925 2.21821 108.925 4.94394V25.0013H109.678C112.405 25.0013 114.624 22.783 114.624 20.0573V0H113.872Z" fill="white"/>
<path d="M28.1812 8.5446H27.5483V18.2393L27.5572 18.2911C28.6094 24.548 34.6047 24.6831 34.664 24.6831H35.4637H36.0965H48.087C50.7334 24.6831 52.8114 22.624 52.8392 19.9854C52.8544 19.8048 52.7899 19.6218 52.6573 19.4892C52.536 19.368 52.3718 19.3023 52.2063 19.3023C52.1937 19.3023 52.1823 19.3023 52.1697 19.3023H34.5516C33.4274 19.3023 33.2682 18.1939 33.2467 17.9275V14.2397H48.2487C50.976 14.2397 53.1954 12.0215 53.1954 9.29578V8.54333H28.1812V8.5446ZM52.2063 19.9374C52.2063 19.9955 52.2 20.0523 52.1975 20.1103C52.2 20.0523 52.2051 19.9955 52.2051 19.9374H52.2063Z" fill="white"/>
<path d="M99.4227 0H99.4189H99.4151H86.1589C83.515 0 81.4383 2.05156 81.4042 4.68261C81.3852 4.86819 81.4497 5.05757 81.5861 5.19392C81.7074 5.31512 81.8716 5.38077 82.0371 5.38077C82.0497 5.38077 82.0611 5.38077 82.0737 5.38077H99.4669C100.653 5.38077 100.69 6.86294 100.691 6.92607V7.2985L100.688 7.94743C100.687 8.24033 100.603 9.17836 99.5705 9.17836H81.0593V24.6856H81.8122C84.5395 24.6856 86.759 22.4674 86.759 19.7417V14.8748H99.544C100.76 14.8748 101.873 14.4316 102.735 13.7019C104.176 12.7841 105.605 11.1491 106.065 8.22897H106.074V5.90471L106.022 5.91354C104.938 0.1313 99.4796 0 99.4227 0Z" fill="white"/>
<path d="M142.133 19.6192C142.121 19.6192 142.109 19.6192 142.097 19.6192H124.479C123.354 19.6192 123.195 18.5108 123.174 18.2444V0.632512C123.174 0.2828 122.891 0 122.541 0H122.421C119.694 0 117.474 2.21821 117.474 4.94394V18.5032C117.474 18.5385 117.477 18.5739 117.483 18.608C118.535 24.8649 124.53 25 124.59 25H125.389H138.013C140.659 25 142.737 22.9409 142.765 20.3022C142.78 20.1217 142.716 19.9386 142.583 19.8061C142.462 19.6849 142.298 19.6192 142.132 19.6192H142.133ZM142.125 20.426C142.127 20.3679 142.132 20.3111 142.132 20.253C142.132 20.3111 142.126 20.3679 142.123 20.426H142.125Z" fill="white"/>
<path d="M169.816 19.8061C169.694 19.6849 169.53 19.6192 169.365 19.6192C169.352 19.6192 169.341 19.6192 169.328 19.6192H151.71C150.586 19.6192 150.426 18.5108 150.405 18.2444V0.632512C150.405 0.2828 150.122 0 149.772 0H149.652C146.925 0 144.705 2.21821 144.705 4.94394V18.5032C144.705 18.5385 144.708 18.5739 144.714 18.608C145.766 24.8649 151.762 25 151.821 25H152.621H165.244C167.89 25 169.968 22.9409 169.996 20.3022C170.011 20.1217 169.947 19.9386 169.814 19.8061H169.816ZM169.357 20.426C169.36 20.3679 169.365 20.3111 169.365 20.253C169.365 20.3111 169.358 20.3679 169.356 20.426H169.357Z" fill="white"/>
<path d="M78.4168 2.02884L77.9696 1.58065C77.0348 0.646405 75.7931 0.132568 74.4718 0.132568C73.1505 0.132568 71.9087 0.646405 70.9739 1.58065L64.7816 7.76942L64.5959 7.95501V16.9945L64.7816 17.1801L70.9739 23.3689C71.9087 24.3031 73.1505 24.8169 74.4718 24.8169C75.7931 24.8169 77.0348 24.3031 77.9696 23.3689L78.4168 22.9219L77.9696 22.475L67.965 12.476L77.9696 2.47703L78.4168 2.0301V2.02884Z" fill="white"/>
</svg>
