<svg width="22" height="15" viewBox="0 0 22 15" fill="none" xmlns="http://www.w3.org/2000/svg">
<path d="M19.2115 0H2.78851C2.04917 0.000714283 1.34031 0.299391 0.817512 0.830477C0.294717 1.36156 0.000703132 2.08167 0 2.83273V12.1673C0.000703132 12.9183 0.294717 13.6384 0.817512 14.1695C1.34031 14.7006 2.04917 14.9993 2.78851 15H19.2115C19.9508 14.9993 20.6597 14.7006 21.1825 14.1695C21.7053 13.6384 21.9993 12.9183 22 12.1673V2.83273C21.9993 2.08167 21.7053 1.36156 21.1825 0.830477C20.6597 0.299391 19.9508 0.000714283 19.2115 0ZM14.3568 7.5L20.465 2.10432C20.5939 2.32866 20.6617 2.58378 20.6615 2.84352V12.1673C20.663 12.4224 20.599 12.6735 20.4756 12.8957L14.3568 7.5ZM19.2115 1.34892H19.2912L11.8153 7.95593C11.5887 8.15455 11.2993 8.26381 11 8.26381C10.7007 8.26381 10.4113 8.15455 10.1847 7.95593L2.70884 1.35432H2.78851L19.2115 1.34892ZM1.52438 12.8957C1.39552 12.6713 1.3277 12.4162 1.32786 12.1565V2.83273C1.32957 2.57665 1.39733 2.3255 1.52438 2.10432L7.63254 7.5L1.52438 12.8957ZM2.78851 13.6403H2.70884L8.655 8.39299L9.31362 8.97302C9.78163 9.38548 10.3804 9.61257 11 9.61257C11.6196 9.61257 12.2184 9.38548 12.6864 8.97302L13.345 8.39299L19.2912 13.6457H19.2115L2.78851 13.6403Z" fill="black"/>
</svg>
