<svg width="20" height="20" viewBox="0 0 20 20" fill="none" xmlns="http://www.w3.org/2000/svg">
<path d="M10 0C4.47715 0 0 4.47715 0 10C0 15.5229 4.47715 20 10 20C15.5229 20 20 15.5229 20 10C20 4.47715 15.5229 0 10 0ZM10.1924 8.49184C10.1957 8.49199 10.1988 8.49266 10.2022 8.49281C10.168 8.34625 10.1503 8.19344 10.1503 8.03648C10.1503 6.93074 11.0468 6.03422 12.1527 6.03422C12.7286 6.03422 13.2489 6.27738 13.6142 6.66656C13.9892 6.59273 14.3441 6.46445 14.6739 6.29457C14.7435 6.26082 14.8132 6.22727 14.8818 6.19012C14.763 6.55473 14.5402 6.87027 14.2513 7.10934C14.173 7.1709 14.0926 7.23035 14.0041 7.27902C14.0102 7.27832 14.016 7.27699 14.022 7.27625C14.0161 7.27988 14.0113 7.28484 14.0053 7.28844C14.3335 7.24918 14.6482 7.16926 14.9471 7.05633C15.0141 7.0332 15.081 7.0098 15.1474 6.98398C14.8801 7.38082 14.5438 7.72988 14.1562 8.00973C14.16 8.09555 14.162 8.18184 14.162 8.26875C14.162 10.9147 12.148 13.9657 8.46492 13.9657C7.33418 13.9657 6.28168 13.6343 5.39555 13.0662C5.55219 13.0846 5.71164 13.0941 5.87324 13.0941C6.62074 13.0941 7.3191 12.8883 7.91945 12.5339C8.07066 12.4468 8.21859 12.3527 8.3598 12.2462C8.35598 12.2462 8.3525 12.2452 8.34867 12.2452C8.35234 12.2423 8.35633 12.2398 8.35996 12.237C7.60129 12.223 6.94652 11.7862 6.61879 11.1531C6.56996 11.0559 6.52816 10.9541 6.4952 10.8472C6.61574 10.8699 6.73918 10.8823 6.86629 10.8823C6.99875 10.8823 7.12668 10.8653 7.25187 10.8408C7.29863 10.8342 7.34586 10.8288 7.39195 10.8212C7.38586 10.8199 7.38051 10.8173 7.37441 10.816C7.38074 10.8143 7.38754 10.8138 7.39379 10.8121C6.47781 10.6281 5.78758 9.81879 5.78758 8.84871C5.78758 8.84105 5.78766 8.83359 5.78773 8.82605L5.78867 8.82391C6.00434 8.94359 6.24543 9.02281 6.50078 9.05594C6.56363 9.06645 6.6266 9.07609 6.68953 9.0816C6.68523 9.07871 6.68152 9.0752 6.67727 9.0723C6.6832 9.07254 6.68887 9.07371 6.69473 9.07391C6.15746 8.71488 5.80398 8.10191 5.80398 7.40727C5.80398 7.08922 5.88164 6.79059 6.01363 6.52355C6.03469 6.4834 6.0534 6.44238 6.07758 6.40348C6.96473 7.49027 8.24617 8.23828 9.70262 8.44059C9.86512 8.46422 10.0281 8.48527 10.193 8.4948C10.1927 8.49387 10.1927 8.49281 10.1924 8.49184Z" fill="#F3F5F6"/>
</svg>
